<?xml version="1.0" standalone="no"?>
<!DOCTYPE svg PUBLIC "-//W3C//DTD SVG 20010904//EN"
 "http://www.w3.org/TR/2001/REC-SVG-20010904/DTD/svg10.dtd">
<svg version="1.0" xmlns="http://www.w3.org/2000/svg"
 width="293.000000pt" height="263.000000pt" viewBox="0 0 293.000000 263.000000"
 preserveAspectRatio="xMidYMid meet">

<g transform="translate(0.000000,263.000000) scale(0.100000,-0.100000)"
fill="#000000" stroke="none">
<path d="M765 1751 c-4 -7 9 -17 32 -26 21 -9 49 -22 63 -31 59 -36 110 -51
188 -57 52 -4 82 -3 82 4 0 16 -47 29 -104 29 -51 0 -61 4 -176 65 -39 21 -77
28 -85 16z"/>
<path d="M1606 1641 c-4 -6 12 -20 36 -32 36 -19 66 -24 188 -29 80 -4 157
-12 173 -18 15 -7 58 -16 95 -22 37 -6 98 -17 135 -26 37 -9 71 -13 75 -9 15
15 -34 34 -126 50 -54 9 -129 25 -168 36 -48 13 -105 19 -180 19 -72 1 -122 6
-149 16 -65 25 -72 26 -79 15z"/>
<path d="M1520 1080 c-52 -9 -113 -25 -135 -34 -74 -32 -119 -45 -245 -69 -69
-14 -195 -45 -280 -70 -85 -25 -171 -47 -190 -49 -19 -2 -35 -7 -35 -13 0 -24
76 -13 237 33 95 27 216 57 268 67 86 15 140 30 280 78 64 23 209 47 277 47
72 0 122 -24 181 -88 23 -25 42 -49 42 -53 0 -4 9 -10 19 -14 19 -6 41 -52 41
-86 0 -25 30 -59 52 -59 23 0 23 13 -1 34 -11 10 -23 36 -26 58 -6 32 -23 56
-83 119 -41 43 -94 88 -117 99 -51 25 -147 25 -285 0z"/>
</g>
</svg>
