<svg width="24" height="24" viewBox="0 0 24 24" fill="none" xmlns="http://www.w3.org/2000/svg">
<g clip-path="url(#clip0_44_605)">
<path fill-rule="evenodd" clip-rule="evenodd" d="M15.4191 18.3403C15.5694 18.5708 15.5814 18.8652 15.4503 19.1072C15.3192 19.3492 15.0662 19.5 14.7909 19.5H0.959063C0.683844 19.5 0.430752 19.3492 0.299676 19.1072C0.1686 18.8652 0.180599 18.5708 0.330938 18.3403C1.38666 16.7153 2.93952 15.4752 4.75781 14.805C2.69393 13.431 1.7731 10.8677 2.49084 8.49441C3.20857 6.12114 5.39558 4.49772 7.875 4.49772C10.3544 4.49772 12.5414 6.12114 13.2592 8.49441C13.9769 10.8677 13.0561 13.431 10.9922 14.805C12.8105 15.4752 14.3633 16.7153 15.4191 18.3403ZM23.6606 18.3263C22.6046 16.7081 21.0552 15.4733 19.2422 14.805C21.7052 13.1459 22.4542 9.858 20.9528 7.29584C19.4514 4.73367 16.2169 3.78002 13.5656 5.11781C13.4667 5.16887 13.3956 5.26121 13.3716 5.36986C13.3475 5.47851 13.3729 5.59225 13.4409 5.68031C15.3907 8.11238 15.5286 11.5309 13.7812 14.1122C13.6667 14.2832 13.7115 14.5146 13.8816 14.6306C14.9915 15.4053 15.9416 16.3866 16.68 17.5209C16.9778 17.977 17.0994 18.5258 17.0222 19.065C17.0046 19.1735 17.0355 19.2843 17.1068 19.3681C17.1781 19.4518 17.2825 19.5 17.3925 19.5H23.0456C23.3852 19.5001 23.6825 19.2721 23.7703 18.9441C23.823 18.7319 23.7832 18.5073 23.6606 18.3263Z" fill="#121417"/>
</g>
<defs>
<clipPath id="clip0_44_605">
<rect width="24" height="24" fill="white"/>
</clipPath>
</defs>
</svg>
