<svg width="48" height="48" viewBox="0 0 48 48" fill="none" xmlns="http://www.w3.org/2000/svg">
<g clip-path="url(#clip0_55_366)">
<path fill-rule="evenodd" clip-rule="evenodd" d="M33.6488 31.875C32.2209 29.4066 30.0206 27.6366 27.4528 26.7975C30.0635 25.2433 31.3141 22.1364 30.5082 19.2069C29.7022 16.2774 27.0383 14.2474 24 14.2474C20.9617 14.2474 18.2978 16.2774 17.4918 19.2069C16.6858 22.1364 17.9365 25.2433 20.5472 26.7975C17.9794 27.6356 15.7791 29.4056 14.3512 31.875C14.2087 32.1074 14.2035 32.3989 14.3377 32.6363C14.4719 32.8736 14.7244 33.0194 14.997 33.0171C15.2697 33.0147 15.5196 32.8646 15.6497 32.625C17.4159 29.5725 20.5378 27.75 24 27.75C27.4622 27.75 30.5841 29.5725 32.3503 32.625C32.4804 32.8646 32.7303 33.0147 33.003 33.0171C33.2756 33.0194 33.5281 32.8736 33.6623 32.6363C33.7965 32.3989 33.7913 32.1074 33.6488 31.875ZM18.75 21C18.75 18.1005 21.1005 15.75 24 15.75C26.8995 15.75 29.25 18.1005 29.25 21C29.25 23.8995 26.8995 26.25 24 26.25C21.1018 26.2469 18.7531 23.8982 18.75 21Z" fill="#121417"/>
</g>
<defs>
<clipPath id="clip0_55_366">
<rect width="24" height="24" fill="white" transform="translate(12 12)"/>
</clipPath>
</defs>
</svg>
